<mxfile host="app.diagrams.net" agent="Mozilla/5.0 (Windows NT 10.0; Win64; x64) AppleWebKit/537.36 (KHTML, like Gecko) Chrome/136.0.0.0 Safari/537.36" version="27.1.1">
  <diagram name="Página-1" id="hC-lmPRC6duHkM84uI6Q">
    <mxGraphModel dx="679" dy="392" grid="1" gridSize="10" guides="1" tooltips="1" connect="1" arrows="1" fold="1" page="1" pageScale="1" pageWidth="827" pageHeight="1169" math="0" shadow="0">
      <root>
        <mxCell id="0" />
        <mxCell id="1" parent="0" />
        <mxCell id="4sZgXKmLeqzzzRTsxkeS-1" value="WolfSys" style="ellipse;whiteSpace=wrap;html=1;aspect=fixed;" parent="1" vertex="1">
          <mxGeometry x="360" y="320" width="80" height="80" as="geometry" />
        </mxCell>
        <mxCell id="q6TDMywINf0oGbrO1VKf-2" style="rounded=0;orthogonalLoop=1;jettySize=auto;html=1;entryX=0;entryY=0;entryDx=0;entryDy=0;" parent="1" source="q6TDMywINf0oGbrO1VKf-1" target="4sZgXKmLeqzzzRTsxkeS-1" edge="1">
          <mxGeometry relative="1" as="geometry" />
        </mxCell>
        <mxCell id="q6TDMywINf0oGbrO1VKf-3" value="c.u. 6, 7, 8, 9,&amp;nbsp;&lt;div&gt;10, 11, 12, 13.&lt;/div&gt;" style="edgeLabel;html=1;align=center;verticalAlign=middle;resizable=0;points=[];" parent="q6TDMywINf0oGbrO1VKf-2" vertex="1" connectable="0">
          <mxGeometry x="-0.1381" y="-1" relative="1" as="geometry">
            <mxPoint as="offset" />
          </mxGeometry>
        </mxCell>
        <mxCell id="q6TDMywINf0oGbrO1VKf-1" value="Agente de vigilancia" style="rounded=0;whiteSpace=wrap;html=1;fillColor=#dae8fc;strokeColor=#6c8ebf;" parent="1" vertex="1">
          <mxGeometry x="240" y="220" width="80" height="40" as="geometry" />
        </mxCell>
        <mxCell id="q6TDMywINf0oGbrO1VKf-8" style="rounded=0;orthogonalLoop=1;jettySize=auto;html=1;entryX=0.662;entryY=0.982;entryDx=0;entryDy=0;entryPerimeter=0;exitX=0.25;exitY=0;exitDx=0;exitDy=0;" parent="1" source="q6TDMywINf0oGbrO1VKf-4" target="4sZgXKmLeqzzzRTsxkeS-1" edge="1">
          <mxGeometry relative="1" as="geometry" />
        </mxCell>
        <mxCell id="q6TDMywINf0oGbrO1VKf-11" value="c.u. 14,&lt;div&gt;15,&amp;nbsp;&lt;span style=&quot;background-color: light-dark(#ffffff, var(--ge-dark-color, #121212)); color: light-dark(rgb(0, 0, 0), rgb(255, 255, 255));&quot;&gt;16, 17&lt;/span&gt;&lt;span style=&quot;color: light-dark(rgb(0, 0, 0), rgb(255, 255, 255)); background-color: light-dark(#ffffff, var(--ge-dark-color, #121212));&quot;&gt;.&lt;/span&gt;&lt;/div&gt;" style="edgeLabel;html=1;align=center;verticalAlign=middle;resizable=0;points=[];" parent="q6TDMywINf0oGbrO1VKf-8" vertex="1" connectable="0">
          <mxGeometry x="0.0207" relative="1" as="geometry">
            <mxPoint x="2" y="11" as="offset" />
          </mxGeometry>
        </mxCell>
        <mxCell id="q6TDMywINf0oGbrO1VKf-4" value="Administrador de WolfSys" style="rounded=0;whiteSpace=wrap;html=1;fillColor=#dae8fc;strokeColor=#6c8ebf;" parent="1" vertex="1">
          <mxGeometry x="440" y="500" width="80" height="40" as="geometry" />
        </mxCell>
        <mxCell id="q6TDMywINf0oGbrO1VKf-9" style="rounded=0;orthogonalLoop=1;jettySize=auto;html=1;entryX=0.998;entryY=0.595;entryDx=0;entryDy=0;entryPerimeter=0;" parent="1" source="q6TDMywINf0oGbrO1VKf-5" target="4sZgXKmLeqzzzRTsxkeS-1" edge="1">
          <mxGeometry relative="1" as="geometry" />
        </mxCell>
        <mxCell id="q6TDMywINf0oGbrO1VKf-13" value="c.u. 21,&lt;div&gt;22,&amp;nbsp;&lt;span style=&quot;background-color: light-dark(#ffffff, var(--ge-dark-color, #121212)); color: light-dark(rgb(0, 0, 0), rgb(255, 255, 255));&quot;&gt;23.&lt;/span&gt;&lt;/div&gt;" style="edgeLabel;html=1;align=center;verticalAlign=middle;resizable=0;points=[];" parent="q6TDMywINf0oGbrO1VKf-9" vertex="1" connectable="0">
          <mxGeometry x="0.1103" y="1" relative="1" as="geometry">
            <mxPoint x="10" y="1" as="offset" />
          </mxGeometry>
        </mxCell>
        <mxCell id="q6TDMywINf0oGbrO1VKf-5" value="Dispositivo Edge" style="rounded=0;whiteSpace=wrap;html=1;fillColor=#dae8fc;strokeColor=#6c8ebf;" parent="1" vertex="1">
          <mxGeometry x="560" y="381.05" width="80" height="40" as="geometry" />
        </mxCell>
        <mxCell id="q6TDMywINf0oGbrO1VKf-7" style="rounded=0;orthogonalLoop=1;jettySize=auto;html=1;entryX=1;entryY=1;entryDx=0;entryDy=0;exitX=0.138;exitY=0.025;exitDx=0;exitDy=0;exitPerimeter=0;" parent="1" source="q6TDMywINf0oGbrO1VKf-6" target="4sZgXKmLeqzzzRTsxkeS-1" edge="1">
          <mxGeometry relative="1" as="geometry" />
        </mxCell>
        <mxCell id="q6TDMywINf0oGbrO1VKf-12" value="c.u. 20." style="edgeLabel;html=1;align=center;verticalAlign=middle;resizable=0;points=[];" parent="q6TDMywINf0oGbrO1VKf-7" vertex="1" connectable="0">
          <mxGeometry x="0.069" y="-1" relative="1" as="geometry">
            <mxPoint as="offset" />
          </mxGeometry>
        </mxCell>
        <mxCell id="q6TDMywINf0oGbrO1VKf-6" value="Personal técnico" style="rounded=0;whiteSpace=wrap;html=1;fillColor=#dae8fc;strokeColor=#6c8ebf;" parent="1" vertex="1">
          <mxGeometry x="510" y="441.05" width="80" height="40" as="geometry" />
        </mxCell>
        <mxCell id="q6TDMywINf0oGbrO1VKf-10" value="Diagrama de contexto" style="text;strokeColor=none;align=center;fillColor=#E6D0DE;html=1;verticalAlign=middle;whiteSpace=wrap;rounded=0;" parent="1" vertex="1">
          <mxGeometry x="190" y="130" width="100" height="30" as="geometry" />
        </mxCell>
        <mxCell id="q6TDMywINf0oGbrO1VKf-15" style="rounded=0;orthogonalLoop=1;jettySize=auto;html=1;entryX=0.5;entryY=0;entryDx=0;entryDy=0;" parent="1" source="q6TDMywINf0oGbrO1VKf-14" target="4sZgXKmLeqzzzRTsxkeS-1" edge="1">
          <mxGeometry relative="1" as="geometry" />
        </mxCell>
        <mxCell id="q6TDMywINf0oGbrO1VKf-16" value="c.u. 1, 2, 3, 4, 5." style="edgeLabel;html=1;align=center;verticalAlign=middle;resizable=0;points=[];" parent="q6TDMywINf0oGbrO1VKf-15" vertex="1" connectable="0">
          <mxGeometry x="-0.7754" y="1" relative="1" as="geometry">
            <mxPoint y="9" as="offset" />
          </mxGeometry>
        </mxCell>
        <mxCell id="q6TDMywINf0oGbrO1VKf-14" value="Residente/&lt;div&gt;Usuario final&lt;/div&gt;" style="rounded=0;whiteSpace=wrap;html=1;fillColor=#dae8fc;strokeColor=#6c8ebf;" parent="1" vertex="1">
          <mxGeometry x="360" y="180" width="80" height="40" as="geometry" />
        </mxCell>
        <mxCell id="q6TDMywINf0oGbrO1VKf-18" style="rounded=0;orthogonalLoop=1;jettySize=auto;html=1;entryX=0.001;entryY=0.574;entryDx=0;entryDy=0;exitX=1;exitY=0.25;exitDx=0;exitDy=0;entryPerimeter=0;" parent="1" source="q6TDMywINf0oGbrO1VKf-17" target="4sZgXKmLeqzzzRTsxkeS-1" edge="1">
          <mxGeometry relative="1" as="geometry">
            <mxPoint x="190.0000000000001" y="420" as="sourcePoint" />
          </mxGeometry>
        </mxCell>
        <mxCell id="q6TDMywINf0oGbrO1VKf-19" value="c.u. 24,&lt;div&gt;25, 26.&lt;/div&gt;" style="edgeLabel;html=1;align=center;verticalAlign=middle;resizable=0;points=[];" parent="q6TDMywINf0oGbrO1VKf-18" vertex="1" connectable="0">
          <mxGeometry x="-0.8068" relative="1" as="geometry">
            <mxPoint x="48" y="-8" as="offset" />
          </mxGeometry>
        </mxCell>
        <mxCell id="q6TDMywINf0oGbrO1VKf-17" value="Tumimeras" style="rounded=0;whiteSpace=wrap;html=1;fillColor=#fff2cc;strokeColor=#d6b656;" parent="1" vertex="1">
          <mxGeometry x="160" y="381.05" width="80" height="40" as="geometry" />
        </mxCell>
        <mxCell id="q6TDMywINf0oGbrO1VKf-21" style="rounded=0;orthogonalLoop=1;jettySize=auto;html=1;entryX=0.35;entryY=0.983;entryDx=0;entryDy=0;exitX=0.75;exitY=0;exitDx=0;exitDy=0;entryPerimeter=0;" parent="1" source="q6TDMywINf0oGbrO1VKf-20" target="4sZgXKmLeqzzzRTsxkeS-1" edge="1">
          <mxGeometry relative="1" as="geometry" />
        </mxCell>
        <mxCell id="q6TDMywINf0oGbrO1VKf-22" value="c.u. 27,&lt;div&gt;28, 29.&lt;/div&gt;" style="edgeLabel;html=1;align=center;verticalAlign=middle;resizable=0;points=[];" parent="q6TDMywINf0oGbrO1VKf-21" vertex="1" connectable="0">
          <mxGeometry x="0.0278" relative="1" as="geometry">
            <mxPoint x="-5" y="13" as="offset" />
          </mxGeometry>
        </mxCell>
        <mxCell id="q6TDMywINf0oGbrO1VKf-20" value="IA scoring" style="rounded=0;whiteSpace=wrap;html=1;fillColor=#fff2cc;strokeColor=#d6b656;" parent="1" vertex="1">
          <mxGeometry x="280" y="500" width="80" height="40" as="geometry" />
        </mxCell>
        <mxCell id="q6TDMywINf0oGbrO1VKf-24" style="rounded=0;orthogonalLoop=1;jettySize=auto;html=1;entryX=0.127;entryY=0.839;entryDx=0;entryDy=0;exitX=0.911;exitY=-0.001;exitDx=0;exitDy=0;exitPerimeter=0;entryPerimeter=0;" parent="1" source="q6TDMywINf0oGbrO1VKf-23" target="4sZgXKmLeqzzzRTsxkeS-1" edge="1">
          <mxGeometry relative="1" as="geometry">
            <mxPoint x="230.4878048780488" y="460" as="sourcePoint" />
          </mxGeometry>
        </mxCell>
        <mxCell id="q6TDMywINf0oGbrO1VKf-25" value="c.u. 30." style="edgeLabel;html=1;align=center;verticalAlign=middle;resizable=0;points=[];" parent="q6TDMywINf0oGbrO1VKf-24" vertex="1" connectable="0">
          <mxGeometry x="-0.1634" relative="1" as="geometry">
            <mxPoint as="offset" />
          </mxGeometry>
        </mxCell>
        <mxCell id="q6TDMywINf0oGbrO1VKf-23" value="UPS" style="rounded=0;whiteSpace=wrap;html=1;fillColor=#fff2cc;strokeColor=#d6b656;" parent="1" vertex="1">
          <mxGeometry x="210" y="441.05" width="80" height="40" as="geometry" />
        </mxCell>
        <mxCell id="u-KBHetcHenWcMfexYkh-1" value="Administrador del edificio" style="rounded=0;whiteSpace=wrap;html=1;fillColor=#dae8fc;strokeColor=#6c8ebf;" vertex="1" parent="1">
          <mxGeometry x="480" y="220" width="80" height="40" as="geometry" />
        </mxCell>
        <mxCell id="u-KBHetcHenWcMfexYkh-2" style="rounded=0;orthogonalLoop=1;jettySize=auto;html=1;entryX=1;entryY=0;entryDx=0;entryDy=0;" edge="1" parent="1" source="u-KBHetcHenWcMfexYkh-1" target="4sZgXKmLeqzzzRTsxkeS-1">
          <mxGeometry relative="1" as="geometry" />
        </mxCell>
        <mxCell id="u-KBHetcHenWcMfexYkh-4" value="c.u. 15.1,&lt;div&gt;18, 19.&lt;/div&gt;" style="edgeLabel;html=1;align=center;verticalAlign=middle;resizable=0;points=[];" vertex="1" connectable="0" parent="u-KBHetcHenWcMfexYkh-2">
          <mxGeometry x="-0.4985" relative="1" as="geometry">
            <mxPoint x="-12" y="12" as="offset" />
          </mxGeometry>
        </mxCell>
      </root>
    </mxGraphModel>
  </diagram>
</mxfile>
